<svg xmlns="http://www.w3.org/2000/svg" width="24" height="24" viewBox="0 0 24 24">
    <g fill="none" fill-rule="evenodd">
        <path d="M0 0h24v24H0z"/>
        <path fill="#FFF" d="M19.668 17.06a.52.52 0 0 1-.169.305l-5.296 3.248a.417.417 0 0 1-.299 0l-5.296-3.248a.52.52 0 0 1-.17-.305V4.263c0-.321-.066-.627-.186-.905h10.529c.49 0 .887.406.887.905V17.06zM5.332 5.979V4.263c0-.499.398-.905.887-.905.49 0 .887.406.887.905V5.98H5.332zM18.78 2C20.005 2 21 3.015 21 4.263V17.06c0 .562-.343 1.18-.815 1.469l-5.297 3.248a1.61 1.61 0 0 1-.835.223c-.296 0-.593-.074-.835-.222l-5.297-3.249c-.472-.29-.815-.908-.815-1.47V7.338H5.043A1.055 1.055 0 0 1 4 6.273v-2.01C4 3.015 4.995 2 6.22 2h12.56zm-1.977 4h-6.607c-.109 0-.197.097-.197.216v.568c0 .119.088.216.197.216h6.607c.108 0 .196-.097.196-.216v-.568c0-.119-.088-.216-.196-.216zm1.001 2h-7.61c-.107 0-.195.097-.195.216v.568c0 .119.088.216.195.216h7.61c.107 0 .195-.097.195-.216v-.568c0-.119-.088-.216-.195-.216zm-1.001 2h-6.607c-.109 0-.197.097-.197.216v.568c0 .119.088.216.197.216h6.607c.108 0 .196-.097.196-.216v-.568c0-.119-.088-.216-.196-.216zm1.01 2h-7.629c-.102 0-.185.097-.185.216v.568c0 .119.083.216.185.216h7.63c.102 0 .185-.097.185-.216v-.568c0-.119-.083-.216-.185-.216zm0 2h-7.629c-.102 0-.185.097-.185.216v.568c0 .119.083.216.185.216h7.63c.102 0 .185-.097.185-.216v-.568c0-.119-.083-.216-.185-.216z"/>
    </g>
</svg>
